<svg xmlns="http://www.w3.org/2000/svg" xmlns:xlink="http://www.w3.org/1999/xlink" viewBox="0 0 48 48"><defs><radialGradient id="radial-gradient" cx="35" cy="29" r="6" gradientUnits="userSpaceOnUse"><stop offset="0" stop-color="#ff568d"/><stop offset=".454" stop-color="#ff9678"/><stop offset=".817" stop-color="#ffc26a"/><stop offset="1" stop-color="#ffd364"/></radialGradient><radialGradient id="radial-gradient-2" cx="13" xlink:href="#radial-gradient"/><style>.cls-4{fill:#f6fafd}.cls-7{fill:#273941}.cls-8{fill:#141e21}</style></defs><g id="_07-feeling" data-name="07-feeling"><circle cx="24" cy="24" r="23" style="fill:#ffce52"/><path d="M24 4c12.15 0 22 8.507 22 19h.975a23 23 0 0 0-45.95 0H2C2 12.507 11.85 4 24 4z" style="fill:#ffe369"/><path d="M46 23c0 10.493-9.85 19-22 19S2 33.493 2 23h-.975c-.014.332-.025.665-.025 1a23 23 0 0 0 46 0c0-.335-.011-.668-.025-1z" style="fill:#ffb32b"/><ellipse class="cls-4" cx="36.5" cy="8.5" rx=".825" ry="1.148" transform="rotate(-45.02 36.5 8.5)"/><ellipse class="cls-4" cx="30.246" cy="4" rx=".413" ry=".574" transform="rotate(-45.02 30.246 4)"/><ellipse class="cls-4" cx="33.5" cy="6.5" rx="1.65" ry="2.297" transform="rotate(-45.02 33.5 6.5)"/><circle cx="35" cy="29" r="6" style="fill:url(#radial-gradient)"/><circle cx="13" cy="29" r="6" style="fill:url(#radial-gradient-2)"/><path class="cls-4" d="M15 13a4.227 4.227 0 0 0-.62.051C15.855 13.3 17 14.964 17 17c0 2.209-1.343 4-3 4s-3-1.791-3-4a4.861 4.861 0 0 1 .624-2.416A6.567 6.567 0 0 0 10 19c0 3.314 2.239 6 5 6s5-2.686 5-6-2.239-6-5-6z"/><path class="cls-7" d="M14 21c1.657 0 3-1.791 3-4 0-2.036-1.145-3.7-2.62-3.949a4.661 4.661 0 0 0-2.756 1.533A4.861 4.861 0 0 0 11 17c0 2.209 1.343 4 3 4z"/><ellipse class="cls-8" cx="14" cy="17" rx="2" ry="3"/><circle class="cls-4" cx="13" cy="16" r="1"/><path class="cls-4" d="M33 13a4.227 4.227 0 0 0-.62.051C33.855 13.3 35 14.964 35 17c0 2.209-1.343 4-3 4s-3-1.791-3-4a4.861 4.861 0 0 1 .624-2.416A6.567 6.567 0 0 0 28 19c0 3.314 2.239 6 5 6s5-2.686 5-6-2.239-6-5-6z"/><path class="cls-7" d="M32 21c1.657 0 3-1.791 3-4 0-2.036-1.145-3.7-2.62-3.949a4.661 4.661 0 0 0-2.756 1.533A4.861 4.861 0 0 0 29 17c0 2.209 1.343 4 3 4z"/><ellipse class="cls-8" cx="32" cy="17" rx="2" ry="3"/><circle class="cls-4" cx="31" cy="16" r="1"/><path class="cls-7" d="M24 39a3 3 0 0 1-2.234-5A3 3 0 1 1 27 32h-2a1 1 0 1 0-1 1 1 1 0 0 1 0 2 1 1 0 1 0 1 1h2a3 3 0 0 1-3 3zM39.219 13.625A11.528 11.528 0 0 0 31 9V7a13.427 13.427 0 0 1 9.781 5.375zM8.781 13.625l-1.562-1.25A13.427 13.427 0 0 1 17 7v2a11.443 11.443 0 0 0-8.219 4.625z"/></g></svg>
