<svg xmlns="http://www.w3.org/2000/svg" viewBox="0 0 48 48"><defs><style>.cls-3{fill:#f6fafd}.cls-4{fill:#141e21}.cls-7{fill:#fbb40a}</style></defs><g id="_08-sarcastic" data-name="08-sarcastic"><circle cx="24" cy="24" r="23" style="fill:#ffce52"/><path d="M21 36.014 19 36c0-3.158 6.915-4 11-4v2c-5.859 0-8.853 1.459-9 2.014z" style="fill:#273941"/><path class="cls-3" d="M39.14 15.92c-.042-.074-.094-.142-.14-.214V17a2 2 0 0 1-4 0v-2h-5.46A5.931 5.931 0 0 0 28 19a6 6 0 0 0 12 0 5.871 5.871 0 0 0-.86-3.08z"/><path class="cls-4" d="M37 19a2 2 0 0 0 2-2v-1.294a5.133 5.133 0 0 0-.54-.706H35v2a2 2 0 0 0 2 2z"/><path class="cls-3" d="M19.14 15.92c-.042-.074-.094-.142-.14-.214V17a2 2 0 0 1-4 0v-2H9.54A5.931 5.931 0 0 0 8 19a6 6 0 0 0 12 0 5.871 5.871 0 0 0-.86-3.08z"/><path class="cls-4" d="M17 19a2 2 0 0 0 2-2v-1.294a5.133 5.133 0 0 0-.54-.706H15v2a2 2 0 0 0 2 2z"/><path d="M24 4c12.15 0 22 8.507 22 19h.975a23 23 0 0 0-45.95 0H2C2 12.507 11.85 4 24 4z" style="fill:#ffe369"/><path d="M46 23c0 10.493-9.85 19-22 19S2 33.493 2 23h-.975c-.014.332-.025.665-.025 1a23 23 0 0 0 46 0c0-.335-.011-.668-.025-1z" style="fill:#ffb32b"/><ellipse class="cls-3" cx="36.5" cy="8.5" rx=".825" ry="1.148" transform="rotate(-45.02 36.5 8.5)"/><ellipse class="cls-3" cx="30.246" cy="4" rx=".413" ry=".574" transform="rotate(-45.02 30.246 4)"/><ellipse class="cls-3" cx="33.5" cy="6.5" rx="1.65" ry="2.297" transform="rotate(-45.02 33.5 6.5)"/><path class="cls-7" d="M34 25a6 6 0 0 1-5.908-4.985 6 6 0 1 0 11.817-.009A6 6 0 0 1 34 25zM14 25a6 6 0 0 1-5.908-4.985 6 6 0 1 0 11.817-.009A6 6 0 0 1 14 25zM35 15h3.46a5.133 5.133 0 0 1 .54.706c.046.072.1.14.14.214a5.851 5.851 0 0 1 .831 2.655c.018-.189.029-.381.029-.575a5.871 5.871 0 0 0-.86-3.08c-.042-.074-.094-.142-.14-.214a5.133 5.133 0 0 0-.54-.706h-8.92A5.931 5.931 0 0 0 28 18a6.032 6.032 0 0 0 .034.634A5.927 5.927 0 0 1 29.54 15zM15 15h3.46a5.133 5.133 0 0 1 .54.706c.046.072.1.14.14.214a5.851 5.851 0 0 1 .831 2.655c.018-.189.029-.381.029-.575a5.871 5.871 0 0 0-.86-3.08c-.042-.074-.094-.142-.14-.214a5.133 5.133 0 0 0-.54-.706H9.54A5.931 5.931 0 0 0 8 18a6.032 6.032 0 0 0 .034.634A5.927 5.927 0 0 1 9.54 15z"/></g></svg>
