<svg xmlns="http://www.w3.org/2000/svg" viewBox="0 0 48 48"><defs><style>.cls-2{fill:#273941}.cls-3{fill:#141e21}.cls-4{fill:#f6fafd}</style></defs><g id="_02-smile" data-name="02-smile"><circle cx="24" cy="24" r="23" style="fill:#ffce52"/><ellipse class="cls-2" cx="33" cy="18" rx="3" ry="4"/><ellipse class="cls-2" cx="15" cy="18" rx="3" ry="4"/><ellipse class="cls-3" cx="33" cy="18" rx="2" ry="3"/><ellipse class="cls-3" cx="15" cy="18" rx="2" ry="3"/><circle class="cls-4" cx="34" cy="17" r="1"/><circle class="cls-4" cx="16" cy="17" r="1"/><path class="cls-2" d="M24 39c-7.72 0-14-5.832-14-13h2c0 6.065 5.383 11 12 11s12-4.935 12-11h2c0 7.168-6.28 13-14 13z"/><path d="M24 4c12.15 0 22 8.507 22 19h.975a23 23 0 0 0-45.95 0H2C2 12.507 11.85 4 24 4z" style="fill:#ffe369"/><path d="M46 23c0 10.493-9.85 19-22 19S2 33.493 2 23h-.975c-.014.332-.025.665-.025 1a23 23 0 0 0 46 0c0-.335-.011-.668-.025-1z" style="fill:#ffb32b"/><ellipse class="cls-4" cx="37" cy="9" rx=".825" ry="1.148" transform="rotate(-45.02 37 9)"/><ellipse class="cls-4" cx="30.746" cy="4.5" rx=".413" ry=".574" transform="rotate(-45.02 30.745 4.5)"/><ellipse class="cls-4" cx="34" cy="7" rx="1.65" ry="2.297" transform="rotate(-45.02 34 7)"/></g></svg>
