<svg fill="#2563eb" height="200px" width="200px" version="1.1" id="Capa_1" xmlns="http://www.w3.org/2000/svg" xmlns:xlink="http://www.w3.org/1999/xlink" viewBox="0 0 512 512" xml:space="preserve" stroke="#2563eb"><g id="SVGRepo_bgCarrier" stroke-width="0"></g><g id="SVGRepo_tracerCarrier" stroke-linecap="round" stroke-linejoin="round"></g><g id="SVGRepo_iconCarrier"> <g> <g> <path d="M511.999,306.509V151.546c0-4.466-3.619-8.084-8.084-8.084s-8.084,3.619-8.084,8.084v146.901H16.168v-184.11 c0-11.704,9.522-21.226,21.225-21.226h437.212c11.703,0,21.225,9.522,21.225,21.226v10.979c0,4.466,3.619,8.084,8.084,8.084 c4.465,0,8.084-3.619,8.084-8.084v-10.979c0-20.619-16.774-37.394-37.393-37.394H37.393C16.775,76.941,0,93.715,0,114.336V306.53 v69.743v21.389c0,20.62,16.775,37.395,37.393,37.395h437.214c20.619,0,37.393-16.775,37.392-37.395v-21.368 c0-0.007,0.001-0.014,0.001-0.021V306.53C512,306.523,511.999,306.516,511.999,306.509z M495.83,397.661 c0.001,11.705-9.522,21.227-21.224,21.227H37.393c-11.703,0-21.225-9.522-21.225-21.227v-13.305H495.83V397.661z M495.831,368.189 H16.168v-53.575h479.663V368.189z"></path> </g> </g> <g> <g> <path d="M365.428,169.121h-95.61c-4.466,0-8.084,3.618-8.084,8.084c-0.001,4.466,3.618,8.084,8.084,8.084h95.61 c4.465,0,8.084-3.618,8.084-8.084S369.893,169.121,365.428,169.121z"></path> </g> </g> <g> <g> <path d="M446.09,202.687H269.816c-4.466,0-8.084,3.618-8.084,8.084c0,4.465,3.619,8.084,8.084,8.084H446.09 c4.466,0,8.084-3.619,8.084-8.084C454.174,206.305,450.555,202.687,446.09,202.687z"></path> </g> </g> <g> <g> <path d="M123.564,138.02c-32.03,0-57.996,25.966-57.996,57.997c0,32.03,25.966,57.996,57.996,57.996 c32.032,0,57.998-25.966,57.998-57.996C181.562,163.986,155.596,138.02,123.564,138.02z M110.223,229.783 c-13.608-5.039-23.186-18.143-23.186-33.768s9.577-28.729,23.186-33.768V229.783z M135.924,229.785v-67.537 c13.613,5.038,23.188,18.142,23.188,33.768C159.111,211.135,149.536,224.745,135.924,229.785z"></path> </g> </g> <g> <g> <path d="M198.687,131.272c-0.43-0.33-0.878-0.64-1.342-0.925c-0.96-0.593-1.975-1.19-3.095-1.82 c-9.615-5.545-20.497-9.185-31.507-10.547c-3.695-0.629-6.998-0.629-9.678-0.629h-0.508h-29.231h-0.501 c-21.343,0-41.166,7.845-55.817,22.091c-15.061,14.646-23.356,34.918-23.356,57.081c0,18.917,6.854,36.909,19.301,50.663 c0.172,0.19,0.347,0.375,0.528,0.556l0.516,0.52c15.044,16.797,36.638,26.421,59.328,26.421h29.231 c20.581,0,41.212-8.186,56.607-22.456c16.177-14.996,25.084-34.779,25.084-55.705c0-0.073,0-0.147,0-0.22 C233.885,169.668,220.941,146.03,198.687,131.272z M152.558,258.514h-29.231c-18.981,0-35.994-8.267-47.549-21.338l-0.833-0.839 c-9.577-10.583-15.122-24.696-15.122-39.815c0-37.299,28.226-63.004,63.004-63.004h0.501h29.231h0.508 c2.43,0,4.863,0.005,7.295,0.459c9.189,1.079,18.015,4.046,25.885,8.597c0.88,0.495,1.749,1.001,2.606,1.529 c0.04,0.046,0.082,0.093,0.126,0.137c16.921,10.9,28.793,29.411,29.103,52.283C218.08,230.793,186.834,258.514,152.558,258.514z"></path> </g> </g> </g></svg>
